Coordinates
version=1
nRows=17
nColumns=40
inDegrees=yes

Units are S.I. units (second, meters, Newtons, ...)
If the header above contains a line with 'inDegrees', this indicates whether rotational values are in degrees (yes) or radians (no).

endheader
time	pelvis_tilt	pelvis_list	pelvis_rotation	pelvis_tx	pelvis_ty	pelvis_tz	hip_flexion_r	hip_adduction_r	hip_rotation_r	knee_angle_r	knee_angle_r_beta	ankle_angle_r	subtalar_angle_r	mtp_angle_r	hip_flexion_l	hip_adduction_l	hip_rotation_l	knee_angle_l	knee_angle_l_beta	ankle_angle_l	subtalar_angle_l	mtp_angle_l	lumbar_extension	lumbar_bending	lumbar_rotation	arm_flex_r	arm_add_r	arm_rot_r	elbow_flex_r	pro_sup_r	wrist_flex_r	wrist_dev_r	arm_flex_l	arm_add_l	arm_rot_l	elbow_flex_l	pro_sup_l	wrist_flex_l	wrist_dev_l
      2.29500000	    -32.06544160	     13.36514144	      5.80137833	      0.12781553	      0.84307948	     -1.19249281	     55.44978726	    -40.83026235	    -19.10021345	     29.20487208	      0.50972118	      1.61112811	     -2.65110356	      0.00000000	     43.92550655	     -7.03044557	    -28.15288446	     15.88656136	      0.27727280	     -5.62090329	      4.51789576	      0.00000000	      0.00000000	      0.00000000	      0.00000000	     26.51741623	    -11.60964970	     26.51741623	     79.83721464	     44.16732846	      0.00000000	      0.00000000	     26.51741623	    -11.60964970	     26.51741623	     79.83721464	     44.16732846	      0.00000000	      0.00000000
      2.30000000	    -32.39456957	     12.99198665	      5.85942560	      0.12703993	      0.84235819	     -1.19270216	     55.71234422	    -40.50774383	    -19.06265120	     29.21812235	      0.50995244	      1.30273751	     -3.08051544	      0.00000000	     44.62585995	     -7.50249738	    -28.10836216	     16.41725505	      0.28653515	     -5.42576969	      4.98494034	      0.00000000	      0.00000000	      0.00000000	      0.00000000	     26.74870674	    -11.67658603	     26.74870674	     79.66277682	     44.23383230	      0.00000000	      0.00000000	     26.74870674	    -11.67658603	     26.74870674	     79.66277682	     44.23383230	      0.00000000	      0.00000000
      2.30500000	    -32.67411814	     12.59957990	      5.85789148	      0.12614709	      0.84157087	     -1.19280982	     56.00453022	    -40.14591288	    -18.99576028	     29.34825433	      0.51222367	      1.14125211	     -3.53648126	      0.00000000	     45.31607058	     -8.02815545	    -28.02076130	     17.02112611	      0.29707469	     -5.17865899	      5.12663073	      0.00000000	      0.00000000	      0.00000000	      0.00000000	     26.99666033	    -11.74768219	     26.99666033	     79.48165499	     44.29862476	      0.00000000	      0.00000000	     26.99666033	    -11.74768219	     26.99666033	     79.48165499	     44.29862476	      0.00000000	      0.00000000
      2.31000000	    -33.23893306	     12.44175738	      6.36908819	      0.12492450	      0.84021724	     -1.19420910	     56.69017643	    -40.48155147	    -18.93398603	     29.67941859	      0.51800357	      1.01606128	     -3.84703653	      0.00000000	     46.25513623	     -7.78018409	    -27.21864197	     17.31030088	      0.30212174	     -5.27910559	      4.36190564	      0.00000000	      0.00000000	      0.00000000	      0.00000000	     27.32117083	    -11.84026848	     27.32117083	     79.24836409	     44.38025352	      0.00000000	      0.00000000	     27.32117083	    -11.84026848	     27.32117083	     79.24836409	     44.38025352	      0.00000000	      0.00000000
      2.31500000	    -33.51524342	     11.99223277	      6.31797855	      0.12397749	      0.83930366	     -1.19418178	     56.98723669	    -40.05823212	    -18.92715308	     29.84343435	      0.52086619	      0.89770568	     -4.23492983	      0.00000000	     47.00285078	     -8.42035260	    -27.17838236	     18.01552971	      0.31443031	     -4.98453024	      4.60098598	      0.00000000	      0.00000000	      0.00000000	      0.00000000	     27.55567921	    -11.90641306	     27.55567921	     79.08642542	     44.43206784	      0.00000000	      0.00000000	     27.55567921	    -11.90641306	     27.55567921	     79.08642542	     44.43206784	      0.00000000	      0.00000000
      2.32000000	    -33.67269706	     11.54029150	      6.15089045	      0.12296720	      0.83837681	     -1.19389812	     57.23147508	    -39.55177568	    -18.89151619	     30.07107706	      0.52483930	      0.97429932	     -4.61586918	      0.00000000	     47.69888840	     -9.17893465	    -27.24092156	     18.90569849	      0.32996669	     -4.56799716	      4.44544537	      0.00000000	      0.00000000	      0.00000000	      0.00000000	     27.80642827	    -11.97645091	     27.80642827	     78.91895756	     44.48221822	      0.00000000	      0.00000000	     27.80642827	    -11.97645091	     27.80642827	     78.91895756	     44.48221822	      0.00000000	      0.00000000
      2.32500000	    -34.49494844	     11.22132144	      6.82116905	      0.12146333	      0.83654417	     -1.19566383	     58.08455051	    -39.90505248	    -18.93497307	     30.38739251	      0.53036005	      0.60039304	     -5.11219997	      0.00000000	     49.00706959	     -8.91769596	    -26.17716400	     19.20340181	      0.33516259	     -4.70197358	      4.03830426	      0.00000000	      0.00000000	      0.00000000	      0.00000000	     28.13724085	    -12.06821841	     28.13724085	     78.70289434	     44.54478010	      0.00000000	      0.00000000	     28.13724085	    -12.06821841	     28.13724085	     78.70289434	     44.54478010	      0.00000000	      0.00000000
      2.33000000	    -34.90611274	     10.59691111	      6.78789316	      0.12025439	      0.83515636	     -1.19567815	     58.47963522	    -39.39467320	    -19.06465981	     30.61274523	      0.53429320	      0.50584642	     -5.53696674	      0.00000000	     50.06678141	     -9.71104592	    -25.98206613	     20.10479082	      0.35089480	     -4.29462589	      4.31120920	      0.00000000	      0.00000000	      0.00000000	      0.00000000	     28.45437987	    -12.15527279	     28.45437987	     78.50309971	     44.59846981	      0.00000000	      0.00000000	     28.45437987	    -12.15527279	     28.45437987	     78.50309971	     44.59846981	      0.00000000	      0.00000000
      2.33500000	    -35.22175441	     10.11755139	      6.78882384	      0.11908931	      0.83383749	     -1.19578555	     58.88291139	    -39.06315804	    -19.09326659	     30.91796754	      0.53962033	      0.46346828	     -5.87705298	      0.00000000	     50.96265027	    -10.31893670	    -25.76978488	     20.90023399	      0.36477790	     -3.99402633	      4.44988484	      0.00000000	      0.00000000	      0.00000000	      0.00000000	     28.75675700	    -12.23708713	     28.75675700	     78.32174631	     44.64256844	      0.00000000	      0.00000000	     28.75675700	    -12.23708713	     28.75675700	     78.32174631	     44.64256844	      0.00000000	      0.00000000
      2.34000000	    -36.04942058	      9.86287262	      7.48191455	      0.11731802	      0.83142874	     -1.19757864	     59.97538764	    -39.63880155	    -19.17397352	     31.55865086	      0.55080237	      0.50619515	     -6.05477135	      0.00000000	     52.40208795	     -9.95692428	    -24.74170282	     21.42481476	      0.37393356	     -4.09428658	      3.47170112	      0.00000000	      0.00000000	      0.00000000	      0.00000000	     28.88256532	    -12.27119519	     28.88256532	     78.24550628	     44.66215638	      0.00000000	      0.00000000	     28.88256532	    -12.27119519	     28.88256532	     78.24550628	     44.66215638	      0.00000000	      0.00000000
      2.34500000	    -36.53466030	      9.29408429	      7.64257944	      0.11593689	      0.82963485	     -1.19810311	     60.48506325	    -39.41964583	    -19.31695622	     31.88781933	      0.55654744	      0.46127335	     -6.39302606	      0.00000000	     53.60237488	    -10.44736474	    -24.24890825	     22.29837620	      0.38918008	     -3.78361082	      3.39649193	      0.00000000	      0.00000000	      0.00000000	      0.00000000	     29.02215278	    -12.30901391	     29.02215278	     78.16114215	     44.68360174	      0.00000000	      0.00000000	     29.02215278	    -12.30901391	     29.02215278	     78.16114215	     44.68360174	      0.00000000	      0.00000000
      2.35000000	    -36.96495968	      8.78416250	      7.84123938	      0.11459614	      0.82784981	     -1.19868207	     61.00075249	    -39.32934908	    -19.48858678	     32.31849303	      0.56406411	      0.48206829	     -6.67528626	      0.00000000	     54.71802079	    -10.82162396	    -23.71433413	     23.09660533	      0.40311181	     -3.57672267	      3.23247436	      0.00000000	      0.00000000	      0.00000000	      0.00000000	     29.14900899	    -12.34315681	     29.14900899	     78.08620386	     44.70172463	      0.00000000	      0.00000000	     29.14900899	    -12.34315681	     29.14900899	     78.08620386	     44.70172463	      0.00000000	      0.00000000
      2.35500000	    -36.79408156	      8.65925788	      7.85958332	      0.11405688	      0.82735207	     -1.19879855	     60.97095989	    -39.32943606	    -19.37350781	     32.60602818	      0.56908255	      0.50495303	     -6.79651962	      0.00000000	     54.84911474	    -11.00522801	    -23.59912480	     23.50073551	      0.41016521	     -3.50235388	      3.20138204	      0.00000000	      0.00000000	      0.00000000	      0.00000000	     29.20716533	    -12.35846119	     29.20716533	     78.05447434	     44.70807356	      0.00000000	      0.00000000	     29.20716533	    -12.35846119	     29.20716533	     78.05447434	     44.70807356	      0.00000000	      0.00000000
      2.36000000	    -37.82830259	      7.78353985	      8.19989342	      0.11176012	      0.82401445	     -1.19977267	     62.11048958	    -39.15428658	    -19.73317947	     33.20852204	      0.57959805	      0.49586544	     -7.29865671	      0.00000000	     56.98712718	    -11.54167681	    -22.60681448	     24.71302983	      0.43132374	     -3.11394375	      2.90638262	      0.00000000	      0.00000000	      0.00000000	      0.00000000	     29.35740935	    -12.39864118	     29.35740935	     77.96763701	     44.72811990	      0.00000000	      0.00000000	     29.35740935	    -12.39864118	     29.35740935	     77.96763701	     44.72811990	      0.00000000	      0.00000000
      2.36500000	    -38.22424143	      7.23780180	      8.45045052	      0.11038608	      0.82205737	     -1.20050293	     62.56887213	    -39.15606748	    -19.99822091	     33.68278936	      0.58787558	      0.57745578	     -7.48973107	      0.00000000	     58.13458589	    -11.82936485	    -21.92657765	     25.52889301	      0.44556324	     -2.89399092	      2.70690713	      0.00000000	      0.00000000	      0.00000000	      0.00000000	     29.48763601	    -12.43328985	     29.48763601	     77.89368575	     44.74454373	      0.00000000	      0.00000000	     29.48763601	    -12.43328985	     29.48763601	     77.89368575	     44.74454373	      0.00000000	      0.00000000
      2.37000000	    -38.01443198	      7.12830180	      8.44532898	      0.10993280	      0.82156145	     -1.20054181	     62.49735739	    -39.14639183	    -19.87501090	     33.95138912	      0.59256353	      0.61288713	     -7.55807713	      0.00000000	     58.20356406	    -12.01225906	    -21.83469255	     25.88369897	      0.45175577	     -2.85380965	      2.64865525	      0.00000000	      0.00000000	      0.00000000	      0.00000000	     29.53925470	    -12.44670133	     29.53925470	     77.86672875	     44.74944324	      0.00000000	      0.00000000	     29.53925470	    -12.44670133	     29.53925470	     77.86672875	     44.74944324	      0.00000000	      0.00000000
      2.37500000	    -38.79789055	      6.39623437	      8.67315100	      0.10789451	      0.81833443	     -1.20111779	     63.52599750	    -39.06496446	    -20.17647209	     34.70118020	      0.60564985	      0.78375608	     -7.86588443	      0.00000000	     60.03269993	    -12.53138829	    -21.09704165	     27.09889017	      0.47296486	     -2.44765392	      2.62782119	      0.00000000	      0.00000000	      0.00000000	      0.00000000	     29.64802780	    -12.47543693	     29.64802780	     77.80643208	     44.76218299	      0.00000000	      0.00000000	     29.64802780	    -12.47543693	     29.64802780	     77.80643208	     44.76218299	      0.00000000	      0.00000000
